# xmcd
#
# Track frame offsets:
# 150
# 23878
# 45591
# 67898
# 86437
# 90356
# 110780
# 135198
# 143925
# 161477
# 179232
# 193192
# 199591
#
# Disc length: 2960 seconds
#
#
# Revision: 0
# Processed by: cddbd v1.5.1PL2 Copyright (c) Steve Scherf et al.
# Submitted via: FreeRIP 2.944 
#
DISCID=ae0b8e0d
DTITLE=Ryan Montbleau Band - One Fine Color
DYEAR=2006
DGENRE=Acoustic
TTITLE0=Stretch
TTITLE1=Quickie
TTITLE2=Inspired By No One
TTITLE3=One Fine Color
TTITLE4=(Intro)
TTITLE5=Variety
TTITLE6=It's All Been Done Before
TTITLE7=Thick American Skin
TTITLE8=Under The Gun
TTITLE9=Honeymoon Eyes
TTITLE10=The Boat Song
TTITLE11=(Intro)
TTITLE12=Starting Again
EXTD=
EXTT0=
EXTT1=
EXTT2=
EXTT3=
EXTT4=
EXTT5=
EXTT6=
EXTT7=
EXTT8=
EXTT9=
EXTT10=
EXTT11=
EXTT12=
PLAYORDER=
